<?xml version="1.0" standalone="no"?><!DOCTYPE svg PUBLIC "-//W3C//DTD SVG 1.1//EN" "http://www.w3.org/Graphics/SVG/1.1/DTD/svg11.dtd"><svg t="1691587940326" class="icon" viewBox="0 0 1024 1024" version="1.1" xmlns="http://www.w3.org/2000/svg" p-id="2529" xmlns:xlink="http://www.w3.org/1999/xlink" width="200" height="200"><path d="M0.001 511.999002a510.989068 510.989068 0 1 0 1021.978136 0A510.989068 510.989068 0 1 0 0.001 511.999002z" fill="#E1E6E9" p-id="2530"></path><path d="M517.377444 636.553829h-105.391701V496.03156c0-36.726413-28.743191-65.470602-65.470602-65.470602h-191.621275c-36.727411 0-65.470602 28.744189-65.470602 65.470602v220.365464h81.439041v226.751842h162.878084V717.99287H518.975286l-1.596844-81.437045z" fill="#FFFFFF" p-id="2531"></path><path d="M332.144543 957.519464H169.266459a14.311714 14.311714 0 0 1-14.372593-14.371596V732.364466h-65.470602a14.311714 14.311714 0 0 1-14.371596-14.371596V497.628404c0-44.710633 35.130567-79.842198 79.842198-79.842197h191.621275c44.711631 0 79.842198 35.131565 79.842197 79.842197V623.779077h91.020106a14.311714 14.311714 0 0 1 14.371595 14.372594v81.440039a14.311714 14.311714 0 0 1-14.371595 14.371596h-170.862303v209.186558a14.309718 14.309718 0 0 1-14.3696 14.3696zM183.638055 928.776273h134.134892V717.99287a14.311714 14.311714 0 0 1 14.371596-14.371595h172.460145v-52.695851h-91.020105a14.311714 14.311714 0 0 1-14.371596-14.372593v-140.522269c0-28.745187-23.952659-52.695851-52.69585-52.69585H154.894864c-28.743191 0-52.695851 23.950663-52.695851 52.69585v207.587719h67.067446a14.311714 14.311714 0 0 1 14.371596 14.371595V928.776273z" fill="#193651" p-id="2532"></path><path d="M169.266459 732.364466a14.311714 14.311714 0 0 1-14.372593-14.371596v-119.763296a14.311714 14.311714 0 0 1 14.371595-14.372594 14.311714 14.311714 0 0 1 14.371596 14.371596v119.763296a14.311714 14.311714 0 0 1-14.371596 14.371596z m162.878084 0a14.311714 14.311714 0 0 1-14.371596-14.371596v-119.763296c0-7.985218 6.387376-14.372594 14.371596-14.372594s14.372594 6.387376 14.372594 14.371596v119.763296a14.314708 14.314708 0 0 1-14.371596 14.371596z m-81.439042 225.154998a14.311714 14.311714 0 0 1-14.371595-14.371596V767.495033a14.311714 14.311714 0 0 1 14.371595-14.371596 14.311714 14.311714 0 0 1 14.371596 14.371596v175.652835a14.311714 14.311714 0 0 1-14.371596 14.371596z" fill="#193651" p-id="2533"></path><path d="M154.895862 336.347165a95.809639 95.809639 0 1 0 191.619279 0 95.809639 95.809639 0 1 0-191.619279 0z" fill="#FDBF5E" p-id="2534"></path><path d="M250.705501 444.932554c-60.68007 0-108.585389-49.500167-108.585389-108.585389s49.500167-108.586387 108.585389-108.586387c60.68007 0 108.586387 49.501165 108.586387 108.585389s-47.905319 108.587385-108.586387 108.587385z m0-190.025429c-44.711631 0-81.439042 36.727411-81.439042 81.439042s36.725415 81.44004 81.439042 81.44004 81.439042-36.726413 81.439042-81.439042c0-44.711631-36.727411-81.44004-81.439042-81.44004z" fill="#193651" p-id="2535"></path><path d="M517.377444 636.553829h105.391701V496.03156c0-36.726413 28.743191-65.470602 65.470602-65.470602h191.621275c36.726413 0 65.470602 28.744189 65.470602 65.470602v220.365464h-81.44004v226.751842h-159.684395V717.99287H517.375448v-81.437045z" fill="#FFFFFF" p-id="2536"></path><path d="M865.490424 957.519464H704.209185a14.311714 14.311714 0 0 1-14.371596-14.371596V732.364466H517.376446c-3.194686 0-7.98422-1.596844-9.582062-4.790532-3.194686-3.193688-4.790532-6.387376-4.790532-9.581064v-81.440039a14.311714 14.311714 0 0 1 14.371596-14.371596h91.020105v-126.150673c0-44.711631 35.131565-79.843196 79.842198-79.843195h191.621275c44.711631 0 79.843196 35.130567 79.843196 79.842197V716.396026a14.311714 14.311714 0 0 1-14.371596 14.371596h-67.067446V943.147868c1.596844 7.985218-4.790532 14.372594-12.772756 14.372594z m-148.506488-28.743191h134.134893V717.99287a14.311714 14.311714 0 0 1 14.371595-14.371595h67.067447V496.03156c0-28.743191-23.950663-52.695851-52.695851-52.69585h-191.621275c-28.743191 0-52.695851 23.952659-52.69585 52.69585v140.522269a14.311714 14.311714 0 0 1-14.371596 14.372593h-91.020105v52.695851h172.460145a14.311714 14.311714 0 0 1 14.371595 14.371595L716.983936 928.776273z" fill="#193651" p-id="2537"></path><path d="M413.583585 558.307477v-60.680071c0-36.727411-28.744189-65.470602-65.470602-65.470602h-191.621275c-36.727411 0-65.470602 28.743191-65.470602 65.470602v60.680071" fill="#4FBF9F" p-id="2538"></path><path d="M413.583585 571.082228a14.311714 14.311714 0 0 1-14.371596-14.371595v-60.680071c0-28.745187-23.952659-52.695851-52.69585-52.69585H154.892868c-28.743191 0-52.695851 23.950663-52.695851 52.69585v60.680071c0 7.98422-6.387376 14.371596-14.371595 14.371595s-14.371596-6.387376-14.371596-14.371595v-60.680071c0-44.711631 35.130567-79.843196 79.842198-79.843195h191.621275c44.711631 0 79.842198 35.130567 79.842197 79.842197v60.680071c1.596844 9.582062-4.790532 14.371596-11.177907 14.371595z" fill="#193651" p-id="2539"></path><path d="M946.929466 558.307477v-60.680071c0-36.727411-28.745187-65.470602-65.470602-65.470602h-191.621275c-36.727411 0-65.470602 28.743191-65.470602 65.470602v60.680071" fill="#F16051" p-id="2540"></path><path d="M946.929466 571.082228a14.311714 14.311714 0 0 1-14.372593-14.371595v-60.680071c0-28.745187-23.952659-52.695851-52.695851-52.69585h-191.621275c-28.744189 0-52.695851 23.950663-52.69585 52.69585v60.680071c0 7.98422-6.387376 14.371596-14.371596 14.371595s-14.372594-6.387376-14.372594-14.371595v-60.680071c0-44.711631 35.130567-79.843196 79.842198-79.843195h191.621275c44.711631 0 79.842198 35.130567 79.842198 79.842197v60.680071c1.597842 9.582062-3.191692 14.371596-11.17691 14.371595z m-81.439042 161.28124a14.311714 14.311714 0 0 1-14.371595-14.371596v-119.763296c0-7.98422 6.387376-14.371596 14.371595-14.371596s14.371596 6.387376 14.371596 14.371596v119.763296a14.314708 14.314708 0 0 1-14.371596 14.371596z m-161.281239 0a14.311714 14.311714 0 0 1-14.371596-14.371596v-119.763296c0-7.98422 6.387376-14.371596 14.371596-14.371596s14.371596 6.387376 14.371595 14.371596v119.763296c-1.596844 7.98422-7.98422 14.371596-14.371595 14.371596z m79.842198 225.155996a14.311714 14.311714 0 0 1-14.371596-14.371596V767.495033c0-7.98422 6.387376-14.371596 14.371596-14.371596S798.422978 759.510813 798.422978 767.495033v175.652835a14.311714 14.311714 0 0 1-14.371595 14.371596z" fill="#193651" p-id="2541"></path><path d="M688.240745 336.347165a95.809639 95.809639 0 1 0 191.620277 0 95.809639 95.809639 0 1 0-191.619279 0z" fill="#FDBF5E" p-id="2542"></path><path d="M784.051383 444.932554c-60.68007 0-108.586387-49.500167-108.586387-108.585389s49.501165-108.586387 108.585389-108.586387 110.182233 47.905319 110.182233 108.585389S844.731453 444.93455 784.051383 444.93455z m0-190.025429c-44.711631 0-81.439042 36.727411-81.439042 81.439042s36.725415 81.44004 81.439042 81.44004c44.711631 0 81.439042-36.726413 81.439041-81.439042 0-44.711631-36.727411-81.44004-81.439041-81.44004zM463.085747 251.714435h-68.66429a14.311714 14.311714 0 0 1-14.371595-14.371596 14.311714 14.311714 0 0 1 14.371595-14.371595H463.085747c22.356813 0 39.921099-17.565284 39.921099-39.921099s-17.564285-39.921099-39.921099-39.921099H261.884407c-7.98422 0-14.371596-6.387376-14.371596-14.372594s6.387376-14.371596 14.371596-14.371595h201.202338c36.726413 0 68.66429 30.339037 68.664291 68.66429-0.001996 38.326251-30.340035 68.665288-68.664291 68.665288z" fill="#193651" p-id="2543"></path><path d="M304.998196 183.050145l-51.098009-43.114787c-3.194686-3.193688-4.790532-6.387376-4.790532-11.177908 0-4.789534 1.597842-7.98422 4.790532-11.176909l51.099007-43.113789c6.387376-4.790532 14.371596-4.790532 19.162127 1.596844 4.789534 6.387376 4.789534 14.372594-1.597842 19.162127l-39.921099 33.533724 39.921099 33.534721c6.387376 4.790532 6.387376 14.371596 1.596844 19.162127-4.790532 6.38538-14.371596 7.980228-19.162127 1.592852z m335.337231 68.66429h-68.664291c-36.727411 0-68.665288-30.340035-68.665288-68.66429 0-36.727411 30.339037-68.666286 68.66429-68.666286H774.470319c7.98422 0 14.371596 6.387376 14.371595 14.371595S782.454539 143.129046 774.470319 143.129046h-202.799183c-22.355815 0-39.921099 17.565284-39.921099 39.921099s17.565284 39.921099 39.921099 39.921099H640.335427a14.311714 14.311714 0 0 1 14.371595 14.371595c0 9.58306-6.387376 14.372594-14.371595 14.372594z" fill="#193651" p-id="2544"></path><path d="M712.193405 183.050145c-4.790532-6.387376-4.790532-14.372594 1.596844-19.162128l39.921098-33.533723-39.921098-33.534721c-6.387376-4.790532-6.387376-14.371596-1.596844-19.162127 4.790532-6.387376 14.371596-6.387376 19.162127-1.596844l51.099007 43.113789c3.193688 3.193688 4.789534 6.387376 4.789533 11.177907s-1.596844 7.98422-4.790531 11.17691l-51.099007 43.113789c-6.387376 4.793526-14.371596 4.793526-19.161129-1.59385z m-15.96844 308.190884h27.146347v27.147345h-27.146347z m75.051666 0H798.422978v27.147345h-27.146347z m73.454822 0h27.146347v27.147345h-27.146347z m-681.852369 0h27.146347v27.147345h-27.146347z m73.454822 0H263.480253v27.147345h-27.146347z m75.051666 0h27.146347v27.147345H311.385572z" fill="#193651" p-id="2545"></path></svg>