<?xml version="1.0" standalone="no"?><!DOCTYPE svg PUBLIC "-//W3C//DTD SVG 1.1//EN" "http://www.w3.org/Graphics/SVG/1.1/DTD/svg11.dtd"><svg t="1691586222447" class="icon" viewBox="0 0 1024 1024" version="1.1" xmlns="http://www.w3.org/2000/svg" p-id="18575" xmlns:xlink="http://www.w3.org/1999/xlink" width="200" height="200"><path d="M691.2 603.733333c-21.333333-10.666667-49.066667-19.2-72.533333-27.733333 93.866667-51.2 151.466667-153.6 149.333333-256 0-44.8-10.666667-87.466667-32-128C663.466667 53.333333 497.066667 2.133333 362.666667 76.8s-185.6 245.333333-113.066667 384c25.6 49.066667 64 89.6 113.066667 115.2-164.266667 51.2-275.2 189.866667-277.333334 362.666667 0 12.8 10.666667 21.333333 21.333334 21.333333s21.333333-6.4 21.333333-21.333333c0-187.733333 168.533333-341.333333 362.666667-341.333334 59.733333 0 136.533333 17.066667 185.6 40.533334 12.8 8.533333 27.733333-27.733333 14.933333-34.133334z m224 262.4c4.266667 10.666667 0 21.333333-10.666667 27.733334h-2.133333l-213.333333 85.333333c-2.133333 2.133333-6.4 2.133333-12.8 2.133333h-2.133334l-213.333333-85.333333c-10.666667-4.266667-17.066667-17.066667-12.8-27.733333 4.266667-10.666667 14.933333-14.933333 25.6-12.8h2.133333l204.8 83.2 204.8-83.2c12.8-4.266667 25.6 0 29.866667 10.666666z m0-85.333333c4.266667 10.666667 0 21.333333-10.666667 27.733333h-2.133333l-213.333333 85.333334c-2.133333 2.133333-6.4 2.133333-12.8 2.133333h-2.133334l-213.333333-85.333333c-10.666667-4.266667-17.066667-17.066667-12.8-27.733334 4.266667-10.666667 14.933333-14.933333 25.6-12.8h2.133333l204.8 83.2 204.8-83.2c12.8-4.266667 25.6 0 29.866667 10.666667zM490.666667 85.333333c130.133333 0 234.666667 104.533333 234.666666 234.666667s-104.533333 234.666667-234.666666 234.666667-234.666667-104.533333-234.666667-234.666667S360.533333 85.333333 490.666667 85.333333z m183.466666 514.133334l-213.333333 85.333333c-17.066667 6.4-17.066667 32 0 40.533333l213.333333 85.333334c4.266667 2.133333 10.666667 2.133333 14.933334 0l213.333333-85.333334c17.066667-6.4 17.066667-32 0-40.533333l-213.333333-85.333333c-4.266667-2.133333-8.533333-2.133333-14.933334 0z m8.533334 42.666666l155.733333 61.866667-155.733333 61.866667-155.733334-61.866667 155.733334-61.866667z" fill="#1296db" p-id="18576"></path></svg>