<?xml version="1.0" standalone="no"?><!DOCTYPE svg PUBLIC "-//W3C//DTD SVG 1.1//EN" "http://www.w3.org/Graphics/SVG/1.1/DTD/svg11.dtd"><svg t="1691586170353" class="icon" viewBox="0 0 1024 1024" version="1.1" xmlns="http://www.w3.org/2000/svg" p-id="17158" xmlns:xlink="http://www.w3.org/1999/xlink" width="200" height="200"><path d="M813.44 595.2c-38.4 0-67.84-16.64-67.84-39.04l-5.12-54.4c0-1.92 0.64-4.48 1.92-5.76 0.64-1.28 1.92-1.92 3.2-1.92V460.8c0-2.56 1.28-5.12 3.2-6.4 1.92-1.28 5.12-1.92 7.04-0.64 0.64 0 43.52 17.92 117.76 17.92 4.48 0 7.68 3.2 7.68 7.68v14.72c1.28 0.64 2.56 1.28 3.2 1.92 1.28 1.28 1.92 3.84 1.92 5.76l-5.12 54.4c-0.64 22.4-29.44 39.04-67.84 39.04z m-57.6-87.04l4.48 47.36v0.64c0 11.52 21.12 24.32 53.12 24.32 31.36 0 53.12-12.8 53.12-24.32v-0.64l4.48-47.36c-2.56-1.28-4.48-3.84-4.48-7.04v-14.08c-52.48-0.64-88.96-10.24-105.6-15.36v29.44c-0.64 3.2-2.56 5.76-5.12 7.04z" fill="#00ABE0" p-id="17159"></path><path d="M748.8 521.6h-1.92c-12.16-2.56-20.48-13.44-20.48-26.24v-56.96c0-26.24 38.4-47.36 87.04-47.36s87.04 20.48 87.04 47.36v56.96c0 12.16-8.96 23.04-20.48 26.24-3.84 0.64-8.32-1.92-8.96-5.76-0.64-3.84 1.92-8.32 5.76-8.96 5.12-1.28 8.96-5.76 8.96-10.88v-56.96c0-15.36-29.44-32-71.68-32s-71.68 16.64-71.68 32v56.96c0 5.12 3.84 10.24 8.96 10.88 3.84 0.64 6.4 5.12 5.76 8.96-1.92 3.2-5.12 5.76-8.32 5.76zM813.44 565.76c-5.12 0-9.6-0.64-14.72-2.56-3.84-1.28-5.76-5.76-4.48-9.6 1.28-3.84 5.76-5.76 9.6-4.48 6.4 2.56 12.16 2.56 18.56 0 3.84-1.28 8.32 0.64 9.6 4.48 1.28 3.84-0.64 8.32-4.48 9.6-4.48 1.28-9.6 2.56-14.08 2.56zM663.68 662.4c-0.64 0-1.92 0-2.56-0.64-3.84-1.28-5.76-5.76-4.48-9.6 12.16-32 42.88-53.12 76.8-53.12h32l1.92-19.2c0.64-3.84 4.48-7.04 8.32-7.04 3.84 0.64 7.04 3.84 7.04 8.32l-2.56 25.6c-0.64 3.84-3.84 7.04-7.68 7.04h-39.04c-27.52 0-52.48 17.28-62.08 42.88-1.28 3.84-4.48 5.76-7.68 5.76zM953.6 647.04c-2.56 0-5.12-1.28-6.4-3.2-12.16-18.56-33.28-29.44-55.68-29.44h-39.04c-3.84 0-7.04-3.2-7.68-7.04l-2.56-25.6c-0.64-3.84 2.56-7.68 7.04-8.32 3.84-0.64 7.68 2.56 8.32 7.04l1.92 18.56h32c27.52 0 53.12 13.44 67.84 36.48 2.56 3.2 1.28 8.32-1.92 10.24-0.64 1.28-1.92 1.28-3.84 1.28z" fill="#00ABE0" p-id="17160"></path><path d="M813.44 645.76c-39.04 0-67.84-16.64-67.84-39.68 0-4.48 3.2-7.68 7.68-7.68s7.68 3.2 7.68 7.68c0 11.52 21.12 24.32 53.12 24.32 31.36 0 53.12-12.8 53.12-24.32 0-4.48 3.2-7.68 7.68-7.68s7.68 3.2 7.68 7.68c-1.28 23.04-30.72 39.68-69.12 39.68zM240.64 595.2c-38.4 0-67.84-16.64-67.84-39.04l-5.12-54.4c0-1.92 0.64-4.48 1.92-5.76 0.64-1.28 1.92-1.92 3.2-1.92V460.8c0-2.56 1.28-5.12 3.2-6.4 1.92-1.28 5.12-1.92 7.04-0.64 0.64 0 43.52 17.92 117.76 17.92 4.48 0 7.68 3.2 7.68 7.68v14.72c1.28 0.64 2.56 1.28 3.2 1.92 1.28 1.28 1.92 3.84 1.92 5.76l-5.12 54.4c0 22.4-28.8 39.04-67.84 39.04z m-56.96-87.04l4.48 47.36v0.64c0 11.52 21.12 24.32 53.12 24.32s53.12-12.8 53.12-24.32v-0.64l4.48-47.36c-2.56-1.28-4.48-3.84-4.48-7.04v-14.08c-52.48-0.64-88.96-10.24-105.6-15.36v29.44c-0.64 3.2-2.56 5.76-5.12 7.04z" fill="#00ABE0" p-id="17161"></path><path d="M176.64 521.6h-1.92c-12.16-3.2-21.12-14.08-21.12-26.24v-56.96c0-26.24 38.4-47.36 87.04-47.36s87.04 20.48 87.04 47.36v56.96c0 12.16-8.96 23.04-20.48 26.24-3.84 0.64-8.32-1.92-8.96-5.76-0.64-3.84 1.92-8.32 5.76-8.96 5.12-1.28 8.96-5.76 8.96-10.88v-56.96c0-15.36-29.44-32-71.68-32s-71.68 16.64-71.68 32v56.96c0 5.12 3.84 10.24 8.96 10.88 3.84 0.64 6.4 5.12 5.76 8.96-1.28 3.2-4.48 5.76-7.68 5.76zM240.64 565.76c-5.12 0-9.6-0.64-14.72-2.56-3.84-1.28-5.76-5.76-4.48-9.6 1.28-3.84 5.76-5.76 9.6-4.48 6.4 2.56 12.16 2.56 18.56 0 3.84-1.28 8.32 0.64 9.6 4.48 1.28 3.84-0.64 8.32-4.48 9.6-3.84 1.28-8.96 2.56-14.08 2.56zM99.2 647.04c-1.28 0-3.2-0.64-4.48-1.28-3.2-2.56-4.48-7.04-1.92-10.24 15.36-23.04 40.32-36.48 67.84-36.48h32l1.92-19.2c0.64-3.84 4.48-7.04 8.32-7.04 3.84 0.64 7.04 3.84 7.04 8.32l-2.56 25.6c-0.64 3.84-3.84 7.04-7.68 7.04h-39.04c-22.4 0-42.88 10.88-55.68 29.44-0.64 2.56-3.2 3.84-5.76 3.84zM389.12 662.4c-3.2 0-5.76-1.92-7.04-5.12-9.6-25.6-34.56-42.88-62.08-42.88h-39.04c-3.84 0-7.04-3.2-7.68-7.04l-2.56-25.6c-0.64-3.84 2.56-7.68 7.04-8.32 3.84-0.64 7.68 2.56 8.32 7.04l1.92 18.56h32c33.92 0 64.64 21.12 76.8 53.12 1.28 3.84-0.64 8.32-4.48 9.6-1.28 0.64-1.92 0.64-3.2 0.64z" fill="#00ABE0" p-id="17162"></path><path d="M240.64 645.76c-39.04 0-67.84-16.64-67.84-39.68 0-4.48 3.2-7.68 7.68-7.68s7.68 3.2 7.68 7.68c0 11.52 21.12 24.32 53.12 24.32s53.12-12.8 53.12-24.32c0-4.48 3.2-7.68 7.68-7.68s7.68 3.2 7.68 7.68c-0.64 23.04-30.08 39.68-69.12 39.68z" fill="#00ABE0" p-id="17163"></path><path d="M472.96 459.52m-8.96 0a8.96 8.96 0 1 0 17.92 0 8.96 8.96 0 1 0-17.92 0Z" fill="#211D1C" p-id="17164"></path><path d="M582.4 459.52m-8.96 0a8.96 8.96 0 1 0 17.92 0 8.96 8.96 0 1 0-17.92 0Z" fill="#211D1C" p-id="17165"></path><path d="M527.36 624.64c-72.96 0-128-30.08-128.64-71.04l-10.88-109.44c0-1.92 0.64-4.48 1.92-5.76 1.28-1.28 3.2-2.56 5.76-2.56h3.2V362.88c0-2.56 1.28-5.12 3.2-6.4 1.92-1.28 5.12-1.92 7.04-0.64 0.64 0.64 88.32 37.12 238.72 37.12 4.48 0 7.68 3.2 7.68 7.68v35.84h3.2c1.92 0 4.48 0.64 5.76 2.56 1.28 1.28 1.92 3.84 1.92 5.76l-10.88 109.44c0.64 40.32-55.04 70.4-128 70.4zM404.48 451.2l9.6 101.76v0.64c0 31.36 49.92 56.32 113.28 56.32 63.36 0 113.28-24.32 113.28-56.32v-0.64l9.6-101.76h-2.56c-4.48 0-7.68-3.2-7.68-7.68v-35.84c-120.96-0.64-199.68-24.32-226.56-33.92v69.76c0 4.48-3.2 7.68-7.68 7.68h-1.28z" fill="#211D1C" p-id="17166"></path><path d="M398.08 476.8h-1.92c-20.48-4.48-35.84-23.04-35.84-44.8V318.08c0-48.64 72.96-87.04 166.4-87.04s166.4 38.4 166.4 87.04v114.56c0 21.12-14.72 39.68-35.84 44.8-3.84 0.64-8.32-1.92-8.96-5.76-0.64-3.84 1.92-8.32 5.76-8.96 14.08-3.2 23.68-15.36 23.68-29.44v-115.2c0-39.04-69.12-71.68-151.68-71.68s-151.68 32.64-151.68 71.68v114.56c0 14.08 10.24 26.88 23.68 29.44 3.84 0.64 6.4 5.12 5.76 8.96 1.28 3.84-1.92 5.76-5.76 5.76zM536.96 529.92h-19.2c-4.48 0-7.68-3.2-7.68-7.68s3.2-7.68 7.68-7.68h19.2c4.48 0 7.68 3.2 7.68 7.68 0 3.84-3.2 7.68-7.68 7.68z" fill="#211D1C" p-id="17167"></path><path d="M494.08 446.08h-42.88c-4.48 0-7.68-3.2-7.68-7.68s3.2-7.68 7.68-7.68h42.88c4.48 0 7.68 3.2 7.68 7.68s-3.2 7.68-7.68 7.68zM527.36 565.12c-8.96 0-17.92-1.92-26.88-5.12-3.84-1.28-5.76-5.76-4.48-9.6 1.28-3.84 5.76-5.76 9.6-4.48 14.08 5.12 28.16 5.12 42.88 0 3.84-1.28 8.32 0.64 9.6 4.48 1.28 3.84-0.64 8.32-4.48 9.6-8.32 3.2-17.28 5.12-26.24 5.12zM603.52 446.08h-42.88c-4.48 0-7.68-3.2-7.68-7.68s3.2-7.68 7.68-7.68h42.88c4.48 0 7.68 3.2 7.68 7.68s-3.2 7.68-7.68 7.68zM213.12 852.48h-1.28c-3.84-0.64-7.04-4.48-6.4-8.32l8.96-70.4c14.08-73.6 78.72-126.08 152.96-126.08h71.04l4.48-44.8c0.64-3.84 4.48-7.04 8.32-7.04 3.84 0.64 7.04 3.84 7.04 8.32l-5.12 51.2c-0.64 3.84-3.84 7.04-7.68 7.04H368c-67.2 0-124.8 48-138.24 113.28l-8.96 69.76c-0.64 3.84-3.84 7.04-7.68 7.04zM840.32 852.48c-3.84 0-7.04-2.56-7.68-6.4l-8.96-70.4c-12.8-65.28-71.04-113.28-138.24-113.28H608c-3.84 0-7.04-3.2-7.68-7.04l-5.12-50.56c-0.64-3.84 2.56-7.68 7.04-8.32 3.84-0.64 7.68 2.56 8.32 7.04l4.48 44.16h71.04c74.24 0 138.88 53.12 152.96 126.08l9.6 71.04c0.64 3.84-2.56 7.68-6.4 8.32-1.28-0.64-1.92-0.64-1.92-0.64z" fill="#211D1C" p-id="17168"></path><path d="M527.36 725.76c-72.96 0-128.64-30.72-128.64-71.04 0-4.48 3.2-7.68 7.68-7.68s7.68 3.2 7.68 7.68c0 31.36 49.92 56.32 113.28 56.32 63.36 0 113.28-24.32 113.28-56.32 0-4.48 3.2-7.68 7.68-7.68s7.68 3.2 7.68 7.68c0 40.32-55.04 71.04-128.64 71.04zM733.44 905.6c-2.56 0-5.76-1.28-7.04-4.48-1.92-3.84-0.64-8.32 3.2-10.24l106.88-53.76c3.84-1.92 8.32-0.64 10.24 3.2 1.92 3.84 0.64 8.32-3.2 10.24l-106.88 53.76c-1.28 1.28-2.56 1.28-3.2 1.28zM320 905.6c-1.28 0-2.56 0-3.2-0.64L209.92 851.2c-3.84-1.92-5.12-6.4-3.2-10.24 1.92-3.84 6.4-5.12 10.24-3.2l106.88 53.76c3.84 1.92 5.12 6.4 3.2 10.24-1.28 2.56-4.48 3.84-7.04 3.84z" fill="#211D1C" p-id="17169"></path><path d="M320 932.48c-4.48 0-7.68-3.2-7.68-7.68v-83.2c0-4.48 3.2-7.68 7.68-7.68s7.68 3.2 7.68 7.68v83.2c0 3.84-3.2 7.68-7.68 7.68zM733.44 932.48c-4.48 0-7.68-3.2-7.68-7.68v-83.2c0-4.48 3.2-7.68 7.68-7.68s7.68 3.2 7.68 7.68v83.2c-0.64 3.84-3.84 7.68-7.68 7.68z" fill="#211D1C" p-id="17170"></path><path d="M526.72 989.44c-249.6 0-452.48-202.88-452.48-452.48s202.88-452.48 452.48-452.48S979.2 287.36 979.2 536.96s-202.88 452.48-452.48 452.48z m0-878.72c-234.88 0-426.24 191.36-426.24 426.24s191.36 426.24 426.24 426.24c234.88 0 426.24-191.36 426.24-426.24S761.6 110.72 526.72 110.72z" fill="#211D1C" p-id="17171"></path></svg>