<?xml version="1.0" standalone="no"?><!DOCTYPE svg PUBLIC "-//W3C//DTD SVG 1.1//EN" "http://www.w3.org/Graphics/SVG/1.1/DTD/svg11.dtd"><svg t="1687250561853" class="icon" viewBox="0 0 1024 1024" version="1.1" xmlns="http://www.w3.org/2000/svg" p-id="2325" xmlns:xlink="http://www.w3.org/1999/xlink" width="400" height="400"><path d="M449.162 968.747c-4.491 0-9.071-0.113-13.765-0.323-130.819-6.074-227.146-123.274-264.304-321.542-22.278-118.88-17.108-195.021 16.27-239.634 18.279-24.443 44.097-38.508 76.715-41.811 18.231-1.811 34.41 11.405 36.253 29.58 1.842 18.183-11.406 34.411-29.58 36.253-14.008 1.422-23.385 6.236-30.405 15.614-14.378 19.217-26.777 67.4-4.208 187.815 14.678 78.321 63.773 261.177 202.33 267.615 96.852 4.354 127.499-52.109 149.883-93.435 5.476-10.121 10.21-18.854 15.678-26.181l2.609-3.489c105.1-140.714 167.313-240.66 78.071-343.748C672.737 421.65 687.171 416.963 701 405c13.797-11.947 31-17 33.727-12.849 130.779 151.054 16.641 303.867-75.074 426.657l-2.601 3.489c-2.585 3.465-6.43 10.566-10.501 18.086-22.829 42.167-69.519 128.346-197.389 128.364z" fill="#75757F" p-id="2326"></path><path d="M331.923 566.622c-3.126 0-6.293-0.444-9.443-1.382-17.513-5.201-27.496-23.619-22.287-41.14 8.393-28.248 0.122-67.966-17.698-84.985-6.333-6.059-16.131-12.141-35.59-5.364-17.262 6.001-36.116-3.134-42.117-20.389-6.001-17.262 3.126-36.114 20.389-42.117 38.829-13.481 75.405-6.374 103.031 20.024 35.744 34.137 50.962 99.348 35.412 151.685-4.266 14.37-17.432 23.668-31.697 23.668z" fill="#75757F" p-id="2327"></path><path d="M334.693 505.716c-17.238 0-31.771-13.352-32.974-30.816-13.094-190.108 104.849-257.413 176.611-267.211 72.069-9.847 132.271-5.889 191.481 45.494 13.813 11.979 15.283 32.876 3.312 46.673-11.986 13.813-32.892 15.258-46.672 3.312-40.97-35.55-80.527-37.941-139.171-29.921-13.498 1.85-131.537 23.038-119.551 197.112 1.261 18.224-12.504 34.023-30.735 35.275-0.766 0.057-1.542 0.082-2.301 0.082z m-101.731-84.179c-12.359 0-24.209-6.947-29.888-18.845-17.223-36.099-36.803-62.19-51.107-81.237-4.071-5.429-7.738-10.324-10.849-14.726-10.55-14.919-6.995-35.565 7.924-46.115 14.928-10.541 35.574-6.995 46.115 7.925 2.787 3.949 6.083 8.327 9.733 13.199 15.074 20.072 37.844 50.412 57.909 92.457 7.867 16.486 0.881 36.236-15.613 44.112a33.013 33.013 0 0 1-14.224 3.23z" fill="#75757F" p-id="2328"></path><path d="M438.298 266.979c-15.122 0-28.555-10.396-32.134-25.373-8.175-15.048-62.005-57.375-116.602-91.576-15.485-9.701-20.171-30.122-10.469-45.607 9.701-15.485 30.113-20.186 45.607-10.469 91.658 57.426 140.867 102.645 146.255 134.397 3.062 18.014-9.063 35.098-27.085 38.151-1.864 0.323-3.73 0.477-5.572 0.477z m-31.794-24.703h0.009-0.009z m-0.784-2.858z" fill="#75757F" p-id="2329"></path><path d="M494.002 249.676a32.947 32.947 0 0 1-13.926-3.094c-16.576-7.706-23.757-27.384-16.051-43.951 10.234-22.004 10.534-66.172 8.32-88.854-1.776-18.168 11.503-34.363 29.678-36.156 18.126-1.672 34.361 11.454 36.172 29.621 0.775 7.828 7.012 77.748-14.168 123.291-5.606 12.06-17.553 19.143-30.025 19.143z m-106.925-63.038a34.46 34.46 0 0 1-3.4-0.169c-18.183-1.858-31.414-18.102-29.557-36.277l6.664-65.22c1.858-18.183 18.184-31.341 36.277-29.556 18.183 1.857 31.414 18.102 29.557 36.276l-6.664 65.22c-1.746 17.036-16.115 29.726-32.877 29.726zM546.721 648.57c-40.841 0-87.191-25.049-105.898-58.814-13.57-24.508-11.454-51.568 5.67-72.377 3.659-4.449 8.668-9.03 15.009-14.822 5.727-5.243 18.91-17.287 25.63-26.019-21.664-24.427-16.632-47.82-13.15-57.319 7.957-21.673 28.449-34.388 48.208-38.959 89.557-85.673 185.109-131.449 308.326-147.976 17.965-2.367 34.767 10.283 37.189 28.401 2.424 18.11-10.29 34.759-28.401 37.19-113.152 15.178-196.442 56.18-278.479 137.103a33.087 33.087 0 0 1-14.047 8.231c6.122 8.166 9.58 17.803 9.942 28.102 1.155 32.796-28.74 60.131-50.574 80.083-2.893 2.643-5.461 4.912-7.319 6.754 4.791 8.732 27.399 24.176 47.474 24.273 9.637-0.033 10.768-2.787 11.834-6.859 11.52-58.174 135.642-221.159 278.084-215.544 18.255 0.72 32.472 16.106 31.745 34.362-0.711 18.256-15.477 32.327-34.362 31.762-104.881-4.516-206.047 134.729-210.488 161.893a35.735 35.735 0 0 1-0.565 2.746c-8.078 32.02-31.365 52.805-63.879 57.037a92.52 92.52 0 0 1-11.949 0.752zM169.803 323.717c-9.499 0-18.934-4.07-25.477-11.955-10.275-12.383-14.589-28.166-12.142-44.443 4.104-27.319 25.962-50.373 43.434-61.811 22.859-14.969 58.297-28.83 89.3-22.787 17.94 3.49 29.652 20.865 26.163 38.797-3.49 17.933-20.849 29.638-38.797 26.164-7.488-1.438-25.574 3.48-40.421 13.19-5.574 3.651-10.792 9.766-13.103 13.772 7.545 13.635 4.589 31.132-7.844 41.447a32.982 32.982 0 0 1-21.113 7.626z" fill="#75757F" p-id="2330"></path><path d="M346.01 368.701c-13.143 0-25.583-7.893-30.744-20.848-11.301-28.361-36.673-59.775-57.061-85.026-6.446-7.98-12.432-15.412-17.504-22.093-11.042-14.563-8.199-35.314 6.357-46.357 14.572-11.066 35.307-8.207 46.357 6.357 4.717 6.211 10.283 13.102 16.275 20.525 23.184 28.709 52.037 64.443 67.045 102.103 6.762 16.972-1.511 36.213-18.489 42.981a33.004 33.004 0 0 1-12.236 2.358zM827.593 232c-45.655 0-81.407 42.643-81.407 97.086 0 54.445 35.752 97.087 81.407 97.087 45.654 0 81.407-42.642 81.407-97.087C909 274.643 873.247 232 827.593 232z m0 128c-5.234 0-15.235-12.037-15.235-30.914s10.001-30.912 15.235-30.912c5.233 0 15.234 12.035 15.234 30.912S832.826 360 827.593 360z" fill="#ffffff" p-id="2331"></path></svg>