<?xml version="1.0" standalone="no"?><!DOCTYPE svg PUBLIC "-//W3C//DTD SVG 1.1//EN" "http://www.w3.org/Graphics/SVG/1.1/DTD/svg11.dtd"><svg t="1687512824613" class="icon" viewBox="0 0 1024 1024" version="1.1" xmlns="http://www.w3.org/2000/svg" p-id="13828" xmlns:xlink="http://www.w3.org/1999/xlink" width="200" height="200"><path d="M287.762 124.318v252.871c0 123.331 100.905 224.238 224.238 224.238 123.331 0 224.238-100.907 224.238-224.238V124.318H287.762z" fill="#D81919" p-id="13829"></path><path d="M379.487 124.318v149.434c0 72.882 59.63 132.513 132.513 132.513 72.882 0 132.513-59.631 132.513-132.513V124.318H379.487z" fill="#FACC60" p-id="13830"></path><path d="M644.513 124.318v149.434c0 72.882-59.631 132.514-132.513 132.514-72.884 0-132.514-59.631-132.514-132.514V124.318h265.027m19.201-19.201H360.285v168.635c0 83.656 68.059 151.714 151.715 151.714s151.714-68.059 151.714-151.714V105.117z" fill="#FFFFFF" p-id="13831"></path><path d="M512 622.736m-339.055 0a339.055 339.055 0 1 0 678.11 0 339.055 339.055 0 1 0-678.11 0Z" fill="#F8B643" p-id="13832"></path><path d="M512 622.736m-250.074 0a250.074 250.074 0 1 0 500.148 0 250.074 250.074 0 1 0-500.148 0Z" fill="#FFF89F" p-id="13833"></path><path d="M512 372.662c138.112 0 250.074 111.962 250.074 250.074S650.112 872.81 512 872.81c-138.113 0-250.074-111.962-250.074-250.074S373.888 372.662 512 372.662m0-24.001c-151.126 0-274.075 122.95-274.075 274.075S360.874 896.811 512 896.811s274.075-122.95 274.075-274.076S663.126 348.661 512 348.661z" fill="#FFFFFF" p-id="13834"></path><path d="M786.015 124.319h-548.03c-17.08 0-31.055-13.975-31.055-31.055s13.975-31.055 31.055-31.055h548.029c17.08 0 31.055 13.975 31.055 31.055 0.001 17.08-13.974 31.055-31.054 31.055z" fill="#231815" p-id="13835"></path><path d="M556.594 800.727h-51.41V527.763l-68.956 39.578 0.408-51.41 82.827-48.147h37.131v332.943z" p-id="13836"></path></svg>